<!DOCTYPE svg PUBLIC "-//W3C//DTD SVG 1.1//EN" "http://www.w3.org/Graphics/SVG/1.1/DTD/svg11.dtd">
<!-- Uploaded to: SVG Repo, www.svgrepo.com, Transformed by: SVG Repo Mixer Tools -->
<svg fill="#ffffff" version="1.1" id="Capa_1" xmlns="http://www.w3.org/2000/svg" xmlns:xlink="http://www.w3.org/1999/xlink" width="800px" height="800px" viewBox="0 0 54.483 54.483" xml:space="preserve" stroke="#ffffff">
<g id="SVGRepo_bgCarrier" stroke-width="0"/>
<g id="SVGRepo_tracerCarrier" stroke-linecap="round" stroke-linejoin="round"/>
<g id="SVGRepo_iconCarrier"> <g> <path d="M31.862,25.841l0.534-1.654h3.084l0.545,1.654h0.905h0.899l-2.879-8.133h-0.985H32.98l-2.873,8.131h0.879L31.862,25.841 L31.862,25.841z M33.94,19.52l1.081,3.266h-2.164L33.94,19.52z M39.066,17.38h6.049v2.336h-6.049V17.38z M39.066,23.641h6.049 v2.335h-6.049V23.641z M29.037,29.907h16.078v2.336H29.037V29.907z M29.037,36.167h16.078v2.336H29.037V36.167z M29.037,41.705 h16.078v2.336H29.037V41.705z M24.458,10.152L2.327,5.271v4.88H0v39.005h26.327l0.233,0.055v-0.055h27.922V10.152H24.458z M52.454,31.032h-0.771h-1.979v-2.755h1.979h0.771V31.032z M4.663,10.152V8.178l8.951,1.974l10.609,2.34v0.462v33.354l-19.56-4.316 v-29.04V10.152z M3.495,46.358v-2.235l10.121,2.235H3.495z M26.561,12.952h21.121v33.402H26.561V12.952z M21.615,18.742 l-14.5-4.828l0.323-0.963l0.421-1.253l3.767,1.253l10.733,3.575L21.615,18.742z M21.615,25.005l-14.5-4.828l0.739-2.217 l14.501,4.828L21.615,25.005z M21.615,31.271l-14.5-4.829l0.739-2.217l14.501,4.829L21.615,31.271z M21.615,37.526l-14.5-4.824 l0.739-2.215l14.501,4.824L21.615,37.526z M21.615,43.069l-14.5-4.829l0.741-2.217l14.501,4.831L21.615,43.069z"/> </g> </g>
</svg>