<?xml version="1.0" standalone="no"?>
<!DOCTYPE svg PUBLIC "-//W3C//DTD SVG 20010904//EN"
 "http://www.w3.org/TR/2001/REC-SVG-20010904/DTD/svg10.dtd">
<svg version="1.0" xmlns="http://www.w3.org/2000/svg"
 width="348.000000pt" height="560.000000pt" viewBox="0 0 348.000000 560.000000"
 preserveAspectRatio="xMidYMid meet">

<g transform="translate(0.000000,560.000000) scale(0.100000,-0.100000)"
fill="#000000" stroke="none">
<path d="M1777 5567 c-45 -46 -58 -93 -64 -222 l-5 -110 -50 -30 c-85 -51
-207 -185 -288 -315 -84 -135 -107 -157 -235 -222 -66 -33 -135 -72 -154 -86
-67 -50 -83 -159 -37 -251 l27 -52 -2 -242 c-1 -254 4 -300 45 -418 17 -49 21
-71 13 -74 -7 -2 -57 -6 -112 -10 -55 -3 -130 -12 -167 -20 -92 -19 -126 -43
-216 -155 l-20 -25 14 70 c18 91 36 106 155 135 125 30 174 53 189 91 36 86
-48 105 -303 68 -181 -25 -243 -115 -308 -448 -34 -176 -21 -206 189 -423 76
-79 147 -156 159 -173 36 -52 53 -127 43 -191 -11 -66 -101 -373 -109 -372 -3
0 -31 0 -62 -1 l-56 -1 -28 -106 c-15 -59 -56 -195 -90 -303 -112 -347 -180
-593 -235 -838 -21 -95 -61 -329 -58 -341 1 -4 -2 -54 -6 -112 -9 -116 4 -264
30 -342 15 -48 16 -48 60 -48 24 0 44 1 44 3 0 1 -9 28 -20 60 -11 31 -25 102
-31 157 -20 169 15 455 90 748 81 318 216 802 224 802 4 0 48 -20 98 -45 83
-41 92 -44 116 -31 26 13 26 14 7 30 -11 10 -60 35 -109 57 -49 21 -92 42 -96
46 -4 5 5 49 20 98 l26 90 178 5 c125 4 177 2 177 -6 0 -6 -11 -42 -25 -80
-27 -75 -26 -97 6 -92 16 2 30 25 59 93 l38 90 68 3 67 3 -7 -128 c-3 -70 -11
-194 -18 -274 -10 -141 -7 -212 12 -224 19 -12 72 52 115 140 48 98 172 302
205 338 11 11 20 26 20 33 0 7 3 14 8 16 4 2 29 33 55 70 26 37 51 70 57 73 5
3 47 -19 94 -50 82 -53 118 -65 130 -46 13 20 -8 38 -94 86 -49 28 -90 53 -90
56 0 17 187 184 260 231 75 49 201 118 215 118 2 0 17 -24 31 -52 27 -54 39
-68 62 -68 19 0 15 24 -15 86 -19 40 -23 58 -15 63 28 17 257 92 367 120 178
46 165 48 188 -34 10 -38 23 -79 28 -90 7 -16 30 -90 95 -305 3 -10 -19 -29
-68 -58 -99 -58 -112 -68 -105 -87 8 -20 35 -19 72 3 17 10 51 30 76 45 l46
26 27 -82 c24 -75 87 -275 121 -387 8 -25 25 -81 39 -125 13 -44 35 -116 49
-160 31 -98 107 -352 107 -358 0 -3 -13 -7 -30 -10 -26 -6 -29 -9 -21 -29 6
-16 18 -24 38 -26 26 -3 33 -10 47 -47 10 -24 19 -54 21 -67 3 -13 14 -50 25
-82 11 -33 20 -67 20 -76 0 -9 -41 -72 -91 -139 -85 -116 -100 -151 -65 -151
7 0 49 46 91 103 43 56 81 103 85 105 4 2 10 -7 13 -20 3 -13 15 -54 26 -93
11 -38 30 -104 41 -145 12 -41 32 -111 45 -155 13 -44 29 -101 36 -127 13 -47
14 -48 52 -48 43 0 42 -11 7 110 -11 36 -38 130 -60 210 -23 80 -54 189 -71
242 -16 54 -43 144 -60 200 -17 57 -43 144 -59 193 -15 50 -38 124 -50 165
-50 165 -220 704 -255 805 -8 22 -62 189 -121 370 -205 637 -262 795 -285 795
-15 0 -10 -24 42 -194 27 -91 48 -170 45 -175 -3 -4 -34 -14 -68 -20 -264 -51
-614 -186 -778 -302 -31 -21 -58 -39 -61 -39 -3 0 -2 37 2 83 4 45 11 118 14
162 8 97 21 169 35 194 21 39 114 77 420 171 142 44 252 90 247 104 -4 13 -97
15 -97 2 0 -4 -11 -6 -25 -4 -13 3 -26 1 -27 -4 -2 -5 -17 -10 -33 -11 -17 -1
-33 -6 -36 -10 -3 -4 -17 -10 -30 -12 -13 -3 -55 -14 -93 -25 -38 -10 -73 -17
-77 -14 -5 3 -9 1 -9 -4 0 -11 -109 -36 -118 -28 -3 4 -6 25 -7 46 0 22 -4 40
-8 40 -5 0 -7 8 -6 18 1 9 0 19 -1 22 -4 12 -12 57 -13 80 -3 42 -32 51 -150
50 -32 0 -56 3 -54 7 3 5 -9 8 -26 9 -28 1 -70 8 -87 14 -3 1 -9 3 -15 4 -40
7 -95 29 -95 37 0 6 -4 7 -10 4 -5 -3 -10 -1 -10 5 0 6 -4 8 -10 5 -5 -3 -10
-1 -10 4 0 6 -6 10 -12 9 -7 -2 -12 2 -11 9 2 7 -4 10 -12 7 -8 -4 -15 -1 -15
5 0 6 -5 11 -12 11 -17 0 -137 130 -159 173 -11 21 -17 43 -13 49 4 6 3 8 -3
5 -14 -9 -37 48 -27 64 4 7 3 10 -3 6 -10 -7 -26 54 -27 101 0 12 -4 22 -8 22
-4 0 -8 15 -8 33 0 25 8 41 29 60 16 14 33 22 37 19 4 -4 4 -2 1 4 -3 6 7 27
23 46 24 29 27 37 14 42 -16 6 -45 -8 -78 -36 -21 -19 -41 -24 -31 -8 3 5 7
60 9 122 2 62 6 146 8 186 3 45 1 72 -5 72 -6 0 -7 3 -4 7 4 3 1 14 -7 22 -21
23 -41 104 -31 127 4 10 8 22 7 26 -3 13 73 68 86 63 7 -3 10 0 7 5 -3 6 -1
10 5 10 6 0 24 10 39 21 16 12 34 19 39 15 5 -3 13 1 16 10 4 10 14 14 26 11
13 -3 18 -1 13 6 -4 7 0 8 11 4 10 -4 15 -3 11 3 -7 11 29 32 40 22 5 -4 5 -2
2 4 -8 14 46 67 58 57 4 -5 5 -3 1 4 -4 7 2 18 14 25 11 7 20 19 20 26 0 7 5
10 12 6 7 -4 8 -3 4 4 -4 7 4 23 18 37 14 14 25 26 23 28 -6 6 31 46 37 39 4
-4 7 -2 6 3 -5 23 2 36 35 69 19 20 35 39 35 43 0 17 80 84 91 77 7 -4 9 -3 5
4 -7 12 42 54 55 46 5 -3 8 0 7 8 -2 7 7 14 18 16 32 5 42 37 31 101 -24 151
23 338 80 317 9 -4 13 -1 11 6 -9 26 -40 19 -71 -15z m-1009 -1895 c25 7 37 7
40 0 2 -6 10 -8 19 -5 12 5 14 1 8 -18 -7 -23 -17 -32 -31 -29 -4 1 -11 -4
-16 -12 -7 -10 -11 -10 -15 -1 -3 10 -8 9 -20 -3 -9 -8 -21 -13 -29 -10 -7 3
-14 1 -16 -3 -2 -5 -21 -11 -43 -15 -61 -9 -69 -11 -83 -20 -7 -4 -16 -6 -19
-3 -3 3 -16 -7 -30 -24 -14 -16 -30 -26 -35 -22 -6 3 -8 2 -5 -4 4 -6 -2 -27
-13 -47 -10 -21 -16 -44 -13 -52 3 -8 1 -14 -5 -14 -5 0 -8 -11 -7 -25 2 -14
-1 -27 -6 -31 -5 -3 -6 -16 -3 -30 4 -14 1 -31 -7 -41 -17 -20 -17 -16 0 -36
11 -14 11 -17 0 -17 -11 0 -11 -2 1 -10 8 -5 18 -10 21 -10 10 0 50 38 48 45
-2 10 63 95 73 95 4 0 8 6 8 13 0 15 84 97 118 115 14 7 31 11 38 8 7 -3 14
-1 16 5 2 5 35 10 74 12 40 1 70 5 68 9 -2 3 23 8 56 10 36 2 60 -1 60 -7 0
-6 3 -6 8 0 11 17 30 12 46 -11 15 -20 13 -21 -77 -33 -142 -18 -160 -22 -190
-37 -15 -8 -33 -12 -40 -8 -7 4 -9 4 -5 0 8 -10 -14 -36 -24 -29 -5 2 -8 -1
-8 -8 0 -17 -76 -90 -85 -81 -5 4 -5 2 -2 -5 4 -6 -9 -27 -28 -47 -19 -20 -35
-41 -35 -47 0 -5 -5 -7 -11 -3 -8 4 -8 0 0 -15 15 -27 33 -27 49 -1 7 12 17
18 23 15 5 -4 8 -2 7 4 -3 10 31 56 90 119 17 19 32 39 32 44 0 4 5 8 11 8 7
0 17 7 23 15 6 9 25 17 43 19 18 3 36 7 40 9 4 3 33 8 63 12 64 8 84 11 125
19 24 4 33 1 43 -14 10 -17 10 -21 -3 -26 -8 -4 -24 -4 -35 -1 -11 3 -18 1
-14 -4 5 -8 -6 -10 -73 -13 -10 -1 -20 -4 -23 -8 -3 -4 -21 -9 -40 -10 -48 -4
-95 -53 -193 -197 -9 -14 -21 -25 -26 -24 -5 1 -7 -7 -4 -17 3 -12 0 -20 -7
-20 -7 0 -3 -9 10 -20 25 -22 35 -26 25 -10 -3 6 1 10 9 10 9 0 15 3 14 8 -5
12 58 92 66 85 4 -4 4 0 0 10 -4 12 -1 17 11 17 9 0 13 4 10 10 -3 5 6 22 22
37 15 16 26 30 24 33 -15 21 251 97 279 80 7 -4 9 -16 6 -27 -7 -22 -72 -57
-88 -47 -7 4 -8 2 -4 -4 4 -7 1 -12 -9 -12 -24 0 -125 -50 -125 -61 0 -6 -5
-7 -12 -3 -8 5 -9 2 -5 -10 4 -10 1 -19 -8 -22 -8 -4 -13 -10 -10 -14 3 -4 -4
-19 -15 -33 -11 -14 -20 -30 -20 -37 0 -6 -5 -8 -12 -4 -8 5 -9 2 -5 -9 4 -10
1 -17 -5 -17 -6 0 -9 -3 -6 -6 4 -3 2 -19 -2 -35 -10 -32 5 -79 24 -79 6 0 4
-5 -4 -10 -13 -8 -13 -10 0 -10 31 0 139 -157 125 -180 -4 -6 -1 -10 5 -10 7
0 10 -7 7 -15 -4 -8 -2 -17 3 -20 5 -3 9 -13 9 -23 0 -42 12 -179 17 -195 3
-10 0 -24 -6 -32 -7 -9 -8 -15 -3 -15 7 0 8 -15 3 -40 -5 -27 -4 -40 4 -41 6
0 7 -2 1 -5 -6 -2 -9 -47 -8 -111 2 -118 -2 -147 -17 -123 -6 8 -10 10 -10 5
0 -7 -68 -11 -191 -13 l-191 -2 6 32 c3 18 10 34 14 38 4 3 7 11 8 18 1 6 2
21 3 33 0 11 5 18 9 15 4 -2 8 3 8 12 1 9 4 31 9 47 4 17 9 42 12 58 3 16 12
27 22 28 10 0 11 2 4 6 -7 2 -13 14 -13 24 0 11 3 18 8 15 13 -8 4 117 -12
162 -8 23 -13 42 -10 42 3 0 -4 10 -16 22 -11 12 -20 25 -20 28 0 4 -20 28
-45 55 -24 27 -42 52 -39 57 3 4 -3 5 -12 1 -14 -5 -16 -3 -11 11 4 9 3 15 -2
12 -10 -6 -63 48 -56 57 3 4 2 5 -2 2 -9 -7 -63 46 -57 57 3 4 0 8 -6 8 -12 0
-57 50 -53 60 1 3 -5 9 -13 13 -8 4 -14 13 -14 18 0 6 -7 17 -16 26 -8 9 -13
22 -10 30 3 8 1 11 -4 8 -6 -4 -10 7 -10 24 0 18 5 31 13 31 8 0 8 3 2 8 -15
10 -17 58 -3 106 6 23 13 48 14 56 8 44 28 100 35 100 4 0 6 9 4 20 -2 11 2
26 10 34 8 7 11 16 8 20 -4 3 3 20 15 36 12 16 22 33 22 37 0 14 41 44 84 64
47 21 82 28 150 34 26 2 51 7 54 10 3 3 10 1 15 -4 5 -5 23 -5 45 1z m525
-408 c115 -68 267 -114 383 -114 49 0 45 8 64 -115 6 -38 13 -78 16 -87 4 -12
-6 -23 -35 -37 -42 -22 -83 -68 -100 -114 -14 -36 -28 -132 -36 -237 -3 -47
-10 -132 -15 -189 l-10 -103 -44 -47 c-122 -127 -297 -369 -400 -553 -21 -38
-40 -68 -42 -68 -2 0 -2 12 1 27 30 167 31 971 2 1076 -23 79 -56 141 -116
216 -28 35 -51 72 -51 83 0 21 30 83 68 141 20 29 47 49 114 83 49 25 96 53
106 64 9 11 17 20 18 20 1 0 36 -21 77 -46z"/>
<path d="M1568 4908 c-9 -7 -18 -20 -20 -28 -6 -18 28 -50 54 -50 10 0 18 -6
18 -12 0 -9 3 -10 8 -2 4 6 14 11 22 11 8 0 32 8 52 17 27 13 41 15 55 7 11
-5 24 -7 30 -3 12 8 14 44 1 36 -4 -3 -8 -1 -8 4 0 5 -6 9 -12 10 -7 1 -35 6
-63 11 -70 14 -119 13 -137 -1z"/>
<path d="M1496 4698 c3 -4 0 -8 -5 -8 -6 0 -10 -3 -9 -7 1 -5 -4 -21 -11 -38
-7 -16 -14 -48 -17 -70 -3 -22 -7 -46 -9 -52 -3 -7 1 -13 7 -13 6 0 8 -3 5 -6
-4 -4 6 -18 21 -30 29 -26 78 -32 146 -21 14 3 42 31 49 50 5 15 -15 42 -24
32 -6 -5 -68 -18 -99 -19 -15 -1 -24 4 -22 12 1 6 -4 11 -10 10 -15 -3 -20 71
-6 88 5 7 11 22 13 35 3 12 10 26 17 30 10 6 9 9 -2 13 -23 7 -50 4 -44 -6z"/>
<path d="M1730 4681 c0 -6 4 -13 10 -16 6 -3 7 1 4 9 -7 18 -14 21 -14 7z"/>
<path d="M2379 2453 c-10 -26 -36 -137 -46 -193 -6 -33 21 -70 38 -53 13 13
48 178 49 229 0 43 -27 53 -41 17z"/>
<path d="M1807 2123 c-4 -3 -7 -14 -7 -24 0 -18 12 -22 103 -34 27 -4 56 -8
65 -9 87 -16 130 -16 146 -1 37 38 24 43 -137 60 -153 17 -161 17 -170 8z"/>
<path d="M1765 1814 c-19 -42 -35 -78 -35 -80 0 -2 -13 -31 -29 -65 -24 -47
-28 -66 -21 -85 21 -53 39 -28 109 149 28 70 51 134 51 142 0 8 -9 15 -20 15
-14 0 -28 -19 -55 -76z"/>
<path d="M2148 1880 c-72 -5 -93 -16 -78 -40 8 -13 36 -14 167 -12 145 3 159
5 175 24 10 11 15 24 12 30 -6 9 -141 8 -276 -2z"/>
<path d="M1400 1843 c0 -10 18 -73 41 -141 28 -84 47 -126 61 -133 11 -6 22
-8 25 -5 17 17 -85 289 -110 294 -11 2 -17 -3 -17 -15z"/>
<path d="M2663 1853 c-19 -7 -16 -37 11 -138 14 -49 29 -108 35 -131 15 -57
71 -83 71 -33 0 23 -89 297 -98 302 -4 2 -13 2 -19 0z"/>
<path d="M2261 1681 c-18 -12 -16 -17 68 -145 53 -83 77 -111 95 -113 14 -2
26 3 29 11 5 14 -157 256 -171 256 -4 0 -13 -4 -21 -9z"/>
<path d="M758 1545 c-92 -62 -114 -81 -119 -105 -8 -37 9 -40 54 -8 151 105
216 159 211 173 -4 8 -12 15 -19 15 -8 0 -65 -34 -127 -75z"/>
<path d="M1989 1532 c-13 -2 -21 -30 -36 -125 -19 -128 -15 -167 19 -167 19 0
24 22 33 135 3 44 8 92 11 107 7 33 -5 55 -27 50z"/>
<path d="M1390 1439 c-8 -5 -68 -34 -133 -64 -93 -43 -118 -59 -115 -72 3 -12
12 -17 30 -16 25 1 145 49 200 78 14 8 32 15 39 15 7 0 21 7 30 16 35 32 -10
70 -51 43z"/>
<path d="M408 1409 c-18 -10 -18 -14 19 -138 14 -47 26 -89 28 -95 1 -6 6 -26
10 -44 13 -54 75 -74 75 -24 0 32 -86 282 -103 299 -8 8 -18 9 -29 2z"/>
<path d="M1576 1250 c-104 -102 -122 -124 -118 -145 2 -14 10 -25 17 -25 17 0
266 261 262 274 -11 32 -45 10 -161 -104z"/>
<path d="M2550 1282 c0 -22 5 -25 190 -86 107 -36 146 -41 154 -20 8 21 -17
33 -150 76 -166 53 -194 57 -194 30z"/>
<path d="M864 1278 c-4 -7 -7 -80 -5 -162 2 -137 4 -152 23 -168 26 -22 25
-22 38 1 9 18 -2 257 -16 319 -5 24 -28 30 -40 10z"/>
<path d="M2172 1135 c-66 -118 -80 -151 -76 -174 4 -20 11 -28 21 -24 13 5
173 312 173 333 0 5 -8 10 -19 10 -13 0 -40 -39 -99 -145z"/>
<path d="M1252 1018 c-5 -7 -49 -71 -97 -142 -68 -100 -85 -133 -81 -152 4
-13 12 -21 19 -18 14 5 197 295 197 312 0 16 -25 15 -38 0z"/>
<path d="M1646 993 c-16 -17 0 -46 75 -136 61 -72 88 -97 105 -97 13 0 24 6
24 13 0 14 -162 207 -184 219 -7 4 -16 5 -20 1z"/>
<path d="M2772 961 c-9 -6 -2 -44 33 -166 25 -87 51 -162 58 -167 18 -12 37
-10 37 4 0 17 -100 321 -109 330 -3 4 -12 4 -19 -1z"/>
<path d="M2355 800 c-89 -63 -141 -107 -143 -120 -2 -11 2 -20 9 -20 7 0 79
44 160 98 116 76 148 102 148 120 1 15 -5 22 -16 21 -10 0 -81 -45 -158 -99z"/>
<path d="M374 878 c-12 -18 21 -34 98 -47 40 -7 106 -19 147 -28 71 -14 75
-14 94 5 19 20 19 20 0 31 -19 9 -272 51 -313 51 -11 0 -22 -5 -26 -12z"/>
<path d="M1375 750 c-3 -5 -13 -68 -22 -140 -11 -99 -13 -138 -4 -156 13 -29
27 -31 35 -6 8 23 25 204 26 258 0 40 -21 67 -35 44z"/>
<path d="M772 610 c-155 -41 -177 -52 -162 -80 11 -20 4 -21 195 29 106 29
145 48 145 72 0 18 -48 13 -178 -21z"/>
<path d="M273 557 c-96 -70 -112 -86 -113 -109 0 -19 5 -28 16 -28 22 0 246
189 241 203 -8 26 -37 13 -144 -66z"/>
<path d="M1730 600 c0 -11 1 -20 3 -20 2 0 59 -21 128 -46 174 -64 175 -64
196 -49 16 12 16 15 3 28 -16 16 -283 107 -313 107 -10 0 -17 -8 -17 -20z"/>
<path d="M2563 583 c-4 -9 -23 -78 -44 -152 -26 -96 -34 -141 -28 -153 14 -27
26 -22 38 15 14 43 71 273 71 285 0 18 -31 22 -37 5z"/>
<path d="M936 434 c-3 -9 -6 -17 -6 -19 0 -2 50 -47 110 -100 110 -96 155
-120 166 -90 8 21 -4 34 -125 128 -119 93 -137 103 -145 81z"/>
<path d="M1632 315 c-196 -52 -192 -51 -192 -70 0 -21 13 -20 204 26 171 40
196 50 196 75 0 21 -28 16 -208 -31z"/>
<path d="M2192 338 c-19 -24 -112 -221 -112 -239 0 -25 19 -34 35 -18 22 22
116 241 111 256 -7 16 -21 17 -34 1z"/>
<path d="M345 331 c-3 -6 -12 -61 -19 -123 -13 -102 -13 -115 2 -131 23 -26
30 -8 42 105 14 130 13 158 -4 158 -8 0 -17 -4 -21 -9z"/>
<path d="M699 253 c-17 -37 -44 -93 -59 -123 -20 -40 -25 -61 -19 -77 15 -40
36 -15 87 105 59 137 63 155 40 160 -13 2 -25 -15 -49 -65z"/>
<path d="M2777 173 c-45 -123 -57 -159 -57 -166 0 -4 11 -7 24 -7 22 0 28 10
61 110 20 60 34 114 30 120 -15 25 -35 5 -58 -57z"/>
<path d="M944 126 c-3 -8 10 -40 30 -70 31 -48 40 -56 67 -56 l31 0 -17 28
c-30 47 -86 112 -96 112 -5 0 -12 -6 -15 -14z"/>
<path d="M1628 117 c-12 -10 -13 -22 -6 -65 9 -49 11 -52 39 -52 33 0 33 3 18
65 -13 53 -29 70 -51 52z"/>
<path d="M3170 95 c-10 -12 -10 -24 -1 -55 11 -37 15 -40 46 -40 19 0 35 2 35
5 0 2 -8 24 -17 47 -23 59 -40 70 -63 43z"/>
</g>
</svg>
